<svg width="200" height="200" viewBox="-100 -100 200 200" xmlns="http://www.w3.org/2000/svg">
    <path d="M-33.617,-32.668C-35.069,-32.305 -35.7,-30.087 -39.453,-28.211C-40.758,-27.557 -43.168,-26.883 -46.456,-25.24C-48.044,-24.445 -56.305,-22.731 -58.022,-19.297C-59.027,-17.287 -60.858,-10.142 -57.704,-6.988C-53.272,-2.556 -52.279,-5.715 -44.652,-5.715C-40.382,-5.715 -40.194,-7.306 -36.376,-5.396C-34.067,-4.242 -28.591,0.621 -28.204,1.395C-27.953,1.899 -27.703,1.654 -27.462,2.138C-27.291,2.478 -27.48,2.526 -26.507,4.472C-24.656,8.173 -23.758,9.549 -24.703,17.1C-25.319,22.023 -26.511,21.455 -29.266,24.21C-30.343,25.287 -32.314,26.275 -32.661,26.969C-32.956,27.557 -34.662,28.141 -33.085,28.666C-30.983,29.367 -30.962,28.815 -28.734,28.666C-28.365,28.642 -25.057,28.421 -24.385,27.075C-21.899,22.105 -20.24,21.86 -19.715,20.283C-19.638,20.049 -19.614,20.079 -18.335,17.524C-18.305,17.465 -17.414,14.464 -15.682,13.598C-11.796,11.655 -10.243,12.145 -10.058,13.068C-9.697,14.877 -9.553,14.846 -6.663,17.737C-5.155,19.245 -3.512,26.046 -5.071,27.605C-5.394,27.928 -8.468,31.001 -9.316,31.425C-9.669,31.602 -0.201,32.614 0.553,31.107C0.641,30.931 1.9,29.778 1.931,28.985C1.976,27.891 1.931,27.896 1.931,15.296C1.931,13.057 5.332,13.172 6.177,12.749C7.719,11.978 11.297,11.772 13.71,11.37C23.072,9.81 23.126,10.272 25.065,9.884C25.394,9.818 25.359,9.827 25.702,9.778C27.506,9.52 28.739,9.91 27.929,8.292C27.409,7.249 26.34,5.425 28.779,2.987C29.026,2.739 28.885,3.199 28.249,3.836C27.615,4.469 26.953,12.141 30.053,13.174C32.483,13.984 32.909,15.809 33.236,16.463C33.504,16.999 33.804,21.473 31.644,22.193C31.525,22.233 29.898,24.181 29.203,24.528C28.566,24.846 28.019,25.393 27.929,25.483C26.59,26.822 24.547,26.414 21.988,31.531C21.733,32.042 22.201,32.168 29.097,32.168C30.536,32.168 31.93,32.667 30.901,31.638C28.141,28.877 36.13,27.335 37.268,25.059C37.482,24.632 38.665,23.54 38.965,22.936C40.346,20.177 41.542,18.981 41.831,18.692C43.147,17.376 42.364,13.122 44.59,14.235C45.433,14.656 44.888,15.431 45.757,15.72C46.614,16.006 52.694,19.067 52.761,20.071C52.792,20.541 52.877,21.938 52.231,24.528C51.828,26.134 52.191,26.734 48.941,27.817C48.489,27.968 45.441,29.514 43.74,30.364C43.105,30.683 43.882,30.752 44.272,31.531C44.507,32.004 52.552,32.061 52.972,31.956C53.161,31.909 53.066,31.803 55.096,30.789C55.732,30.47 56.1,29.734 56.156,29.621C57.022,27.89 58.144,28.384 59.446,21.875C60.731,15.454 60.858,12.675 59.233,11.051C58.608,10.425 59.013,10.194 58.385,9.566C56.546,7.726 55.691,3.113 50.638,5.64C46.861,7.528 45.007,6.184 43.635,8.929C42.702,10.796 42.078,11.088 42.786,13.917C43.046,14.954 43.3,14.844 43.316,14.765C43.784,12.429 40.367,11.454 43.74,8.08C44.356,7.466 50.013,6.693 53.185,4.579C53.588,4.31 55.536,3.537 56.05,-2.637C56.41,-6.946 55.843,-11.761 55.202,-12.081C54.923,-12.22 54.969,-12.782 53.822,-13.355C53.459,-13.537 46.341,-20.8 43.529,-21.738C38.082,-23.554 38.125,-23.646 35.571,-24.285C32.689,-25.005 30.282,-26.749 27.082,-27.15C26.673,-27.201 19.488,-28.488 18.38,-28.529C5.239,-29.016 2.13,-27.461 0.87,-26.831C-0.029,-26.382 -17.334,-21.53 -22.263,-24.815C-22.898,-25.24 -25.478,-26.099 -25.763,-26.195C-28.091,-26.97 -28.893,-29.829 -30.538,-30.651C-31.257,-31.011 -31.492,-31.845 -32.236,-32.031C-33.103,-32.248 -33.066,-32.272 -33.934,-32.561Z" fill="none" stroke="#2C7FFF" stroke-width="2.2"/>
</svg>
