<?xml version="1.0" encoding="UTF-8" standalone="no"?>
<!DOCTYPE svg PUBLIC "-//W3C//DTD SVG 1.1//EN" "http://www.w3.org/Graphics/SVG/1.1/DTD/svg11.dtd">
<svg width="100%" height="100%" viewBox="0 0 240 380" version="1.1" xmlns="http://www.w3.org/2000/svg" xmlns:xlink="http://www.w3.org/1999/xlink" xml:space="preserve" xmlns:serif="http://www.serif.com/" style="fill-rule:evenodd;clip-rule:evenodd;stroke-linecap:round;stroke-miterlimit:10;">
    <g transform="matrix(1,0,0,1,-1039.33,-8.01994)">
        <g id="Master" transform="matrix(1,0,0,1,1039.33,8.01994)">
            <rect x="0" y="0" width="240" height="380" style="fill:none;"/>
            <clipPath id="_clip1">
                <rect x="0" y="0" width="240" height="380"/>
            </clipPath>
            <g clip-path="url(#_clip1)">
                <g id="rect420" transform="matrix(8.40695,-3.93655e-19,2.3497e-20,3.11377,-7.07872,-535.454)">
                    <rect x="0" y="168.5" width="30.48" height="128.5" style="fill:rgb(34,34,34);"/>
                </g>
                <g id="Nombres">
                    <g transform="matrix(0.217332,0,0,0.217332,-4.8448,15.2288)">
                        <path d="M76.699,69.412C72.979,69.412 69.845,68.163 67.299,65.667C64.752,63.17 63.479,60.006 63.479,56.173C63.479,52.341 64.752,49.182 67.299,46.698C69.845,44.214 72.979,42.972 76.699,42.972C79.395,42.972 81.798,43.609 83.908,44.882C86.018,46.155 87.572,47.99 88.57,50.387L84.451,50.387C82.903,47.466 80.319,46.005 76.699,46.005C73.877,46.005 71.549,46.935 69.714,48.796C67.879,50.656 66.962,53.121 66.962,56.192C66.962,59.263 67.879,61.734 69.714,63.607C71.549,65.479 73.877,66.416 76.699,66.416C78.421,66.416 79.957,66.035 81.305,65.274C82.653,64.512 83.702,63.42 84.451,61.997L88.57,61.997C87.572,64.393 86.018,66.228 83.908,67.502C81.798,68.775 79.395,69.412 76.699,69.412Z" style="fill:white;fill-rule:nonzero;"/>
                        <rect x="93.926" y="41.474" width="3.408" height="27.713" style="fill:white;fill-rule:nonzero;"/>
                        <path d="M111.714,66.715C113.637,66.715 115.303,66.023 116.714,64.637C118.125,63.251 118.83,61.335 118.83,58.888C118.83,56.442 118.156,54.532 116.808,53.158C115.459,51.785 113.818,51.099 111.883,51.099C109.948,51.099 108.331,51.785 107.033,53.158C105.735,54.532 105.086,56.448 105.086,58.907C105.086,61.366 105.71,63.282 106.958,64.656C108.207,66.029 109.792,66.715 111.714,66.715ZM104.43,66.603C102.545,64.656 101.603,62.096 101.603,58.926C101.603,55.755 102.589,53.19 104.562,51.23C106.534,49.27 109.006,48.29 111.977,48.29C114.948,48.29 117.419,49.27 119.392,51.23C121.364,53.19 122.35,55.749 122.35,58.907C122.35,62.065 121.32,64.624 119.261,66.584C117.201,68.544 114.685,69.524 111.714,69.524C108.743,69.524 106.315,68.55 104.43,66.603Z" style="fill:white;fill-rule:nonzero;"/>
                        <path d="M135.233,69.524C132.287,69.524 129.89,68.55 128.043,66.603C126.195,64.656 125.271,62.09 125.271,58.907C125.271,55.724 126.195,53.158 128.043,51.211C129.89,49.264 132.287,48.29 135.233,48.29C137.705,48.29 139.721,48.864 141.281,50.013C142.842,51.161 143.934,52.796 144.558,54.919L140.888,54.919C140.489,53.72 139.802,52.784 138.828,52.11C137.855,51.436 136.656,51.099 135.233,51.099C133.286,51.099 131.719,51.779 130.533,53.14C129.347,54.5 128.754,56.423 128.754,58.907C128.754,61.391 129.347,63.314 130.533,64.674C131.719,66.035 133.286,66.715 135.233,66.715C138.154,66.715 140.039,65.442 140.888,62.895L144.558,62.895C143.934,64.918 142.829,66.528 141.244,67.726C139.658,68.925 137.655,69.524 135.233,69.524Z" style="fill:white;fill-rule:nonzero;"/>
                        <path d="M152.497,69.187L149.09,69.187L149.09,41.474L152.497,41.474L152.497,57.727L160.362,48.627L165.156,48.627L155.456,58.851L165.156,69.187L160.549,69.187L152.497,60.162L152.497,69.187Z" style="fill:white;fill-rule:nonzero;"/>
                    </g>
                    <g transform="matrix(0.217332,0,0,0.217332,79.8381,-4.45001)">
                        <path d="M64.779,58.336L64.779,42.27L71.336,42.27L71.336,58.336C71.336,59.946 71.732,61.186 72.525,62.055C73.317,62.924 74.48,63.359 76.014,63.359C77.548,63.359 78.723,62.924 79.541,62.055C80.359,61.186 80.768,59.946 80.768,58.336L80.768,42.27L87.325,42.27L87.325,58.336C87.325,60.713 86.769,62.764 85.657,64.49C84.545,66.215 83.139,67.474 81.439,68.267C79.74,69.059 77.893,69.455 75.899,69.455C72.78,69.455 70.147,68.484 68,66.541C65.853,64.599 64.779,61.863 64.779,58.336Z" style="fill:rgb(33,112,245);fill-rule:nonzero;"/>
                        <path d="M110.983,42.27L110.983,47.254L99.519,64.202L110.983,64.202L110.983,69.187L91.965,69.187L91.965,64.202L103.43,47.254L91.965,47.254L91.965,42.27L110.983,42.27Z" style="fill:rgb(33,112,245);fill-rule:nonzero;"/>
                        <path d="M133.836,42.27L133.836,47.254L122.371,64.202L133.836,64.202L133.836,69.187L114.818,69.187L114.818,64.202L126.283,47.254L114.818,47.254L114.818,42.27L133.836,42.27Z" style="fill:rgb(33,112,245);fill-rule:nonzero;"/>
                        <path d="M180.616,42.27L180.616,69.187L174.059,69.187L174.059,54.003L167.809,69.187L162.939,69.187L156.689,54.003L156.689,69.187L150.132,69.187L150.132,42.27L157.648,42.27L165.393,60.828L173.1,42.27L180.616,42.27Z" style="fill:rgb(33,112,245);fill-rule:nonzero;"/>
                        <path d="M203.469,69.187L201.973,64.662L192.311,64.662L190.815,69.187L183.837,69.187L193.192,42.193L201.168,42.193L210.485,69.187L203.469,69.187ZM193.959,59.678L200.324,59.678L197.142,50.092L193.959,59.678Z" style="fill:rgb(33,112,245);fill-rule:nonzero;"/>
                        <path d="M222.832,47.063C222.014,47.063 221.343,47.28 220.819,47.715C220.295,48.149 220.033,48.775 220.033,49.593C220.033,50.411 220.276,51.07 220.762,51.568C221.247,52.067 221.88,52.45 222.66,52.718C223.439,52.987 224.308,53.242 225.267,53.485C226.226,53.728 227.178,54.022 228.124,54.367C229.069,54.712 229.932,55.14 230.712,55.652C231.491,56.163 232.124,56.885 232.61,57.818C233.096,58.751 233.338,59.869 233.338,61.173C233.338,63.448 232.412,65.397 230.558,67.021C228.705,68.644 226.264,69.455 223.235,69.455C220.206,69.455 217.764,68.727 215.911,67.27C214.058,65.813 213.131,63.742 213.131,61.058L220.11,61.058C220.289,63.205 221.388,64.279 223.407,64.279C224.353,64.279 225.094,64.03 225.631,63.531C226.168,63.033 226.436,62.4 226.436,61.633C226.436,60.866 226.194,60.24 225.708,59.754C225.222,59.269 224.59,58.885 223.81,58.604C223.03,58.323 222.161,58.061 221.203,57.818C220.244,57.575 219.292,57.275 218.346,56.917C217.4,56.559 216.537,56.131 215.758,55.632C214.978,55.134 214.345,54.418 213.86,53.485C213.374,52.552 213.131,51.447 213.131,50.169C213.131,47.663 214.064,45.657 215.93,44.149C217.796,42.64 220.18,41.886 223.081,41.886C225.983,41.886 228.328,42.544 230.117,43.861C231.907,45.177 232.84,47.254 232.917,50.092L225.785,50.092C225.682,49.12 225.369,48.373 224.845,47.849C224.321,47.325 223.65,47.063 222.832,47.063Z" style="fill:rgb(33,112,245);fill-rule:nonzero;"/>
                        <path d="M236.674,47.254L236.674,42.27L257.917,42.27L257.917,47.254L250.555,47.254L250.555,69.187L243.998,69.187L243.998,47.254L236.674,47.254Z" style="fill:rgb(33,112,245);fill-rule:nonzero;"/>
                        <path d="M278.124,42.193L278.124,47.178L268.385,47.178L268.385,52.968L276.974,52.968L276.974,57.952L268.385,57.952L268.385,64.202L278.124,64.202L278.124,69.187L261.828,69.187L261.828,42.193L278.124,42.193Z" style="fill:rgb(33,112,245);fill-rule:nonzero;"/>
                        <path d="M290.317,58.719L290.317,69.187L283.76,69.187L283.76,42.27L294.382,42.27C297.5,42.27 299.929,43.075 301.667,44.685C303.405,46.296 304.274,48.239 304.274,50.514C304.274,52.073 303.801,53.594 302.856,55.077C301.91,56.559 300.363,57.607 298.216,58.221L304.811,69.187L297.142,69.187L291.084,58.719L290.317,58.719ZM290.317,47.254L290.317,53.734L294.382,53.734C295.379,53.734 296.165,53.441 296.74,52.853C297.315,52.265 297.603,51.491 297.603,50.533C297.603,49.574 297.309,48.788 296.721,48.175C296.133,47.561 295.353,47.254 294.382,47.254L290.317,47.254Z" style="fill:rgb(33,112,245);fill-rule:nonzero;"/>
                    </g>
                    <g transform="matrix(0.217332,0,0,0.217332,193.08,188.647)">
                        <path d="M72.916,69.187L62.917,43.234L66.55,43.234L74.714,65.554L82.953,43.234L86.586,43.234L76.586,69.187L72.916,69.187Z" style="fill:white;fill-rule:nonzero;"/>
                        <path d="M90.555,75.554L100.779,33.909L104.15,33.909L93.926,75.554L90.555,75.554Z" style="fill:white;fill-rule:nonzero;"/>
                        <path d="M129.316,63.607C131.139,61.734 132.05,59.263 132.05,56.192C132.05,53.121 131.139,50.656 129.316,48.796C127.493,46.935 125.165,46.005 122.332,46.005C119.498,46.005 117.163,46.935 115.328,48.796C113.493,50.656 112.576,53.121 112.576,56.192C112.576,59.263 113.5,61.734 115.347,63.607C117.195,65.479 119.529,66.416 122.35,66.416C125.171,66.416 127.493,65.479 129.316,63.607ZM122.35,69.449C118.63,69.449 115.497,68.195 112.95,65.685C110.404,63.176 109.13,60.006 109.13,56.173C109.13,52.341 110.404,49.182 112.95,46.698C115.497,44.214 118.63,42.972 122.35,42.972C126.07,42.972 129.197,44.214 131.731,46.698C134.266,49.182 135.533,52.347 135.533,56.192C135.533,60.037 134.266,63.208 131.731,65.704C129.197,68.201 126.07,69.449 122.35,69.449Z" style="fill:white;fill-rule:nonzero;"/>
                        <path d="M151.636,69.412C147.916,69.412 144.783,68.163 142.236,65.667C139.69,63.17 138.416,60.006 138.416,56.173C138.416,52.341 139.69,49.182 142.236,46.698C144.783,44.214 147.916,42.972 151.636,42.972C154.333,42.972 156.736,43.609 158.845,44.882C160.955,46.155 162.509,47.99 163.508,50.387L159.388,50.387C157.84,47.466 155.256,46.005 151.636,46.005C148.815,46.005 146.487,46.935 144.652,48.796C142.817,50.656 141.899,53.121 141.899,56.192C141.899,59.263 142.817,61.734 144.652,63.607C146.487,65.479 148.815,66.416 151.636,66.416C153.359,66.416 154.894,66.035 156.242,65.274C157.591,64.512 158.639,63.42 159.388,61.997L163.508,61.997C162.509,64.393 160.955,66.228 158.845,67.502C156.736,68.775 154.333,69.412 151.636,69.412Z" style="fill:white;fill-rule:nonzero;"/>
                        <path d="M167.702,45.968L167.702,43.234L184.817,43.234L184.817,45.968L177.963,45.968L177.963,69.187L174.556,69.187L174.556,45.968L167.702,45.968Z" style="fill:white;fill-rule:nonzero;"/>
                    </g>
                    <g transform="matrix(0.217332,0,0,0.217332,196.698,230.559)">
                        <path d="M76.493,69.412C72.91,69.412 69.845,68.163 67.299,65.667C64.752,63.17 63.479,60.006 63.479,56.173C63.479,52.341 64.752,49.182 67.299,46.698C69.845,44.214 72.979,42.972 76.699,42.972C79.395,42.972 81.798,43.609 83.908,44.882C86.018,46.155 87.572,47.99 88.57,50.387L84.451,50.387C82.903,47.466 80.319,46.005 76.699,46.005C73.877,46.005 71.549,46.935 69.714,48.796C67.879,50.656 66.962,53.121 66.962,56.192C66.962,59.263 67.879,61.734 69.714,63.607C71.549,65.479 73.834,66.416 76.568,66.416C79.301,66.416 81.499,65.642 83.159,64.094C84.819,62.546 85.787,60.449 86.061,57.802L75.351,57.802L75.351,55.106L89.656,55.106L89.656,57.802C89.307,61.148 87.921,63.919 85.499,66.116C83.078,68.313 80.075,69.412 76.493,69.412Z" style="fill:white;fill-rule:nonzero;"/>
                        <path d="M107.913,64.506C109.274,63.108 109.954,61.248 109.954,58.926C109.954,56.604 109.274,54.744 107.913,53.346C106.553,51.948 104.917,51.248 103.007,51.248C101.097,51.248 99.462,51.923 98.101,53.271C96.741,54.619 96.06,56.454 96.06,58.776C96.06,61.098 96.747,62.983 98.12,64.431C99.493,65.879 101.129,66.603 103.026,66.603C104.924,66.603 106.553,65.904 107.913,64.506ZM102.389,69.524C99.593,69.524 97.259,68.519 95.386,66.509C93.514,64.5 92.578,61.928 92.578,58.795C92.578,55.661 93.508,53.127 95.368,51.192C97.228,49.257 99.568,48.29 102.389,48.29C104.137,48.29 105.666,48.702 106.977,49.526C108.288,50.35 109.28,51.423 109.954,52.746L109.954,48.627L113.4,48.627L113.4,69.187L109.954,69.187L109.954,64.993C109.28,66.341 108.288,67.433 106.977,68.27C105.666,69.106 104.137,69.524 102.389,69.524Z" style="fill:white;fill-rule:nonzero;"/>
                        <path d="M125.758,66.416L128.567,66.416L128.567,69.187L125.122,69.187C121.551,69.187 119.766,67.427 119.766,63.907L119.766,51.398L117.107,51.398L117.107,48.627L119.766,48.627L119.766,43.534L123.212,43.534L123.212,48.627L128.53,48.627L128.53,51.398L123.212,51.398L123.212,63.907C123.212,64.83 123.399,65.479 123.773,65.854C124.148,66.228 124.809,66.416 125.758,66.416Z" style="fill:white;fill-rule:nonzero;"/>
                        <path d="M140.925,69.524C137.979,69.524 135.583,68.55 133.735,66.603C131.888,64.656 130.964,62.084 130.964,58.888C130.964,55.693 131.9,53.127 133.773,51.192C135.645,49.257 138.073,48.29 141.057,48.29C144.04,48.29 146.437,49.207 148.247,51.043C150.057,52.878 150.962,55.218 150.962,58.064C150.962,58.788 150.912,59.463 150.812,60.087L134.447,60.087C134.546,62.134 135.189,63.751 136.375,64.936C137.561,66.122 139.078,66.715 140.925,66.715C142.324,66.715 143.503,66.403 144.464,65.779C145.426,65.155 146.131,64.331 146.58,63.307L150.25,63.307C149.601,65.105 148.484,66.59 146.899,67.764C145.313,68.937 143.322,69.524 140.925,69.524ZM147.404,57.615C147.379,55.643 146.755,54.063 145.532,52.878C144.308,51.692 142.792,51.099 140.982,51.099C139.172,51.099 137.667,51.679 136.469,52.84C135.271,54.001 134.609,55.593 134.484,57.615L147.404,57.615Z" style="fill:white;fill-rule:nonzero;"/>
                    </g>
                    <g transform="matrix(0.217332,0,0,0.217332,198.093,269.464)">
                        <path d="M73.253,43.234C76.174,43.234 78.403,43.946 79.938,45.369C81.474,46.792 82.241,48.614 82.241,50.837C82.241,53.059 81.499,54.887 80.013,56.323C78.528,57.759 76.274,58.476 73.253,58.476L68.235,58.476L68.235,69.187L64.827,69.187L64.827,43.234L73.253,43.234ZM68.235,55.78L73.253,55.78C75.126,55.78 76.518,55.349 77.429,54.488C78.34,53.627 78.796,52.422 78.796,50.874C78.796,47.603 76.948,45.968 73.253,45.968L68.235,45.968L68.235,55.78Z" style="fill:white;fill-rule:nonzero;"/>
                        <path d="M95.236,66.715C97.159,66.715 98.825,66.023 100.236,64.637C101.647,63.251 102.352,61.335 102.352,58.888C102.352,56.442 101.678,54.532 100.33,53.158C98.981,51.785 97.34,51.099 95.405,51.099C93.47,51.099 91.853,51.785 90.555,53.158C89.257,54.532 88.608,56.448 88.608,58.907C88.608,61.366 89.232,63.282 90.48,64.656C91.729,66.029 93.314,66.715 95.236,66.715ZM87.952,66.603C86.067,64.656 85.125,62.096 85.125,58.926C85.125,55.755 86.111,53.19 88.084,51.23C90.056,49.27 92.528,48.29 95.499,48.29C98.47,48.29 100.941,49.27 102.914,51.23C104.886,53.19 105.872,55.749 105.872,58.907C105.872,62.065 104.842,64.624 102.783,66.584C100.723,68.544 98.207,69.524 95.236,69.524C92.265,69.524 89.837,68.55 87.952,66.603Z" style="fill:white;fill-rule:nonzero;"/>
                        <rect x="110.142" y="41.474" width="3.408" height="27.713" style="fill:white;fill-rule:nonzero;"/>
                        <path d="M124.934,68.85L116.808,48.627L120.553,48.627L126.844,65.255L133.248,48.627L136.768,48.627L124.373,78.812L120.852,78.812L124.934,68.85Z" style="fill:white;fill-rule:nonzero;"/>
                    </g>
                    <g transform="matrix(0.217332,0,0,0.217332,198.195,14.9463)">
                        <path d="M68.235,58.476L68.235,69.187L64.827,69.187L64.827,43.234L73.253,43.234C76.174,43.234 78.403,43.946 79.938,45.369C81.474,46.792 82.241,48.533 82.241,50.593C82.241,52.653 81.68,54.369 80.556,55.742C79.433,57.116 77.747,57.977 75.5,58.327L82.653,69.187L78.384,69.187L71.568,58.476L68.235,58.476ZM68.235,45.968L68.235,55.78L73.253,55.78C75.126,55.78 76.518,55.349 77.429,54.488C78.34,53.627 78.796,52.422 78.796,50.874C78.796,47.603 76.948,45.968 73.253,45.968L68.235,45.968Z" style="fill:white;fill-rule:nonzero;"/>
                        <path d="M105.048,43.234L108.456,43.234L108.456,69.187L105.048,69.187L91.342,48.59L91.342,69.187L87.934,69.187L87.934,43.234L91.342,43.234L105.048,63.832L105.048,43.234Z" style="fill:white;fill-rule:nonzero;"/>
                        <path d="M117.482,66.566L122.275,66.566C125.546,66.566 128.043,65.667 129.765,63.869C131.488,62.072 132.349,59.562 132.349,56.342C132.349,53.121 131.488,50.612 129.765,48.814C128.043,47.017 125.546,46.118 122.275,46.118L117.482,46.118L117.482,66.566ZM122.275,43.234C126.47,43.234 129.778,44.408 132.2,46.754C134.621,49.101 135.832,52.297 135.832,56.342C135.832,60.386 134.621,63.538 132.2,65.798C129.778,68.057 126.47,69.187 122.275,69.187L114.074,69.187L114.074,43.234L122.275,43.234Z" style="fill:white;fill-rule:nonzero;"/>
                    </g>
                    <g transform="matrix(0.217332,0,0,0.217332,198.093,316.517)">
                        <path d="M78.571,43.234L78.571,45.931L68.235,45.931L68.235,54.769L77.448,54.769L77.448,57.428L68.235,57.428L68.235,66.491L78.571,66.491L78.571,69.187L64.827,69.187L64.827,43.234L78.571,43.234Z" style="fill:white;fill-rule:nonzero;"/>
                        <path d="M102.577,63.607C104.399,61.734 105.311,59.263 105.311,56.192C105.311,53.121 104.399,50.656 102.577,48.796C100.754,46.935 98.426,46.005 95.592,46.005C92.759,46.005 90.424,46.935 88.589,48.796C86.754,50.656 85.837,53.121 85.837,56.192C85.837,59.263 86.76,61.734 88.608,63.607C90.455,65.479 92.79,66.416 95.611,66.416C98.432,66.416 100.754,65.479 102.577,63.607ZM95.611,69.449C91.891,69.449 88.758,68.195 86.211,65.685C83.664,63.176 82.391,60.006 82.391,56.173C82.391,52.341 83.664,49.182 86.211,46.698C88.758,44.214 91.891,42.972 95.611,42.972C99.331,42.972 102.458,44.214 104.992,46.698C107.526,49.182 108.793,52.347 108.793,56.192C108.793,60.037 107.526,63.208 104.992,65.704C102.458,68.201 99.331,69.449 95.611,69.449Z" style="fill:white;fill-rule:nonzero;"/>
                        <path d="M124.897,69.412C121.177,69.412 118.044,68.163 115.497,65.667C112.95,63.17 111.677,60.006 111.677,56.173C111.677,52.341 112.95,49.182 115.497,46.698C118.044,44.214 121.177,42.972 124.897,42.972C127.593,42.972 129.996,43.609 132.106,44.882C134.216,46.155 135.77,47.99 136.768,50.387L132.649,50.387C131.101,47.466 128.517,46.005 124.897,46.005C122.076,46.005 119.747,46.935 117.912,48.796C116.077,50.656 115.16,53.121 115.16,56.192C115.16,59.263 116.077,61.734 117.912,63.607C119.747,65.479 122.076,66.416 124.897,66.416C126.62,66.416 128.155,66.035 129.503,65.274C130.851,64.512 131.9,63.42 132.649,61.997L136.768,61.997C135.77,64.393 134.216,66.228 132.106,67.502C129.996,68.775 127.593,69.412 124.897,69.412Z" style="fill:white;fill-rule:nonzero;"/>
                    </g>
                    <g transform="matrix(0.217332,0,0,0.217332,-3.95844,142.266)">
                        <path d="M68.235,58.476L68.235,69.187L64.827,69.187L64.827,43.234L73.253,43.234C76.174,43.234 78.403,43.946 79.938,45.369C81.474,46.792 82.241,48.533 82.241,50.593C82.241,52.653 81.68,54.369 80.556,55.742C79.433,57.116 77.747,57.977 75.5,58.327L82.653,69.187L78.384,69.187L71.568,58.476L68.235,58.476ZM68.235,45.968L68.235,55.78L73.253,55.78C75.126,55.78 76.518,55.349 77.429,54.488C78.34,53.627 78.796,52.422 78.796,50.874C78.796,47.603 76.948,45.968 73.253,45.968L68.235,45.968Z" style="fill:white;fill-rule:nonzero;"/>
                        <path d="M101.921,64.506C103.282,63.108 103.962,61.248 103.962,58.926C103.962,56.604 103.282,54.744 101.921,53.346C100.561,51.948 98.925,51.248 97.015,51.248C95.105,51.248 93.47,51.923 92.109,53.271C90.749,54.619 90.068,56.454 90.068,58.776C90.068,61.098 90.755,62.983 92.128,64.431C93.501,65.879 95.137,66.603 97.034,66.603C98.932,66.603 100.561,65.904 101.921,64.506ZM96.397,69.524C93.601,69.524 91.267,68.519 89.394,66.509C87.522,64.5 86.586,61.928 86.586,58.795C86.586,55.661 87.516,53.127 89.376,51.192C91.236,49.257 93.576,48.29 96.397,48.29C98.145,48.29 99.674,48.702 100.985,49.526C102.296,50.35 103.288,51.423 103.962,52.746L103.962,48.627L107.408,48.627L107.408,69.187L103.962,69.187L103.962,64.993C103.288,66.341 102.296,67.433 100.985,68.27C99.674,69.106 98.145,69.524 96.397,69.524Z" style="fill:white;fill-rule:nonzero;"/>
                        <path d="M119.766,66.416L122.575,66.416L122.575,69.187L119.13,69.187C115.559,69.187 113.774,67.427 113.774,63.907L113.774,51.398L111.115,51.398L111.115,48.627L113.774,48.627L113.774,43.534L117.22,43.534L117.22,48.627L122.538,48.627L122.538,51.398L117.22,51.398L117.22,63.907C117.22,64.83 117.407,65.479 117.781,65.854C118.156,66.228 118.817,66.416 119.766,66.416Z" style="fill:white;fill-rule:nonzero;"/>
                        <path d="M129.69,44.657C129.241,45.107 128.692,45.331 128.043,45.331C127.394,45.331 126.85,45.107 126.414,44.657C125.977,44.208 125.758,43.659 125.758,43.009C125.758,42.36 125.983,41.811 126.432,41.362C126.882,40.912 127.425,40.688 128.061,40.688C128.698,40.688 129.241,40.912 129.69,41.362C130.14,41.811 130.365,42.36 130.365,43.009C130.365,43.659 130.14,44.208 129.69,44.657ZM126.32,69.187L126.32,48.627L129.728,48.627L129.728,69.187L126.32,69.187Z" style="fill:white;fill-rule:nonzero;"/>
                        <path d="M144.109,66.715C146.031,66.715 147.698,66.023 149.108,64.637C150.519,63.251 151.224,61.335 151.224,58.888C151.224,56.442 150.55,54.532 149.202,53.158C147.854,51.785 146.212,51.099 144.277,51.099C142.342,51.099 140.726,51.785 139.427,53.158C138.129,54.532 137.48,56.448 137.48,58.907C137.48,61.366 138.104,63.282 139.353,64.656C140.601,66.029 142.186,66.715 144.109,66.715ZM136.825,66.603C134.94,64.656 133.997,62.096 133.997,58.926C133.997,55.755 134.983,53.19 136.956,51.23C138.928,49.27 141.4,48.29 144.371,48.29C147.342,48.29 149.814,49.27 151.786,51.23C153.758,53.19 154.744,55.749 154.744,58.907C154.744,62.065 153.715,64.624 151.655,66.584C149.595,68.544 147.08,69.524 144.109,69.524C141.138,69.524 138.71,68.55 136.825,66.603Z" style="fill:white;fill-rule:nonzero;"/>
                    </g>
                    <g transform="matrix(0.217332,0,0,0.217332,-5.18834,59.9628)">
                        <path d="M68.235,58.476L68.235,69.187L64.827,69.187L64.827,43.234L73.253,43.234C76.174,43.234 78.403,43.946 79.938,45.369C81.474,46.792 82.241,48.533 82.241,50.593C82.241,52.653 81.68,54.369 80.556,55.742C79.433,57.116 77.747,57.977 75.5,58.327L82.653,69.187L78.384,69.187L71.568,58.476L68.235,58.476ZM68.235,45.968L68.235,55.78L73.253,55.78C75.126,55.78 76.518,55.349 77.429,54.488C78.34,53.627 78.796,52.422 78.796,50.874C78.796,47.603 76.948,45.968 73.253,45.968L68.235,45.968Z" style="fill:white;fill-rule:nonzero;"/>
                        <path d="M96.547,69.524C93.601,69.524 91.204,68.55 89.357,66.603C87.509,64.656 86.586,62.084 86.586,58.888C86.586,55.693 87.522,53.127 89.394,51.192C91.267,49.257 93.695,48.29 96.678,48.29C99.662,48.29 102.059,49.207 103.869,51.043C105.679,52.878 106.584,55.218 106.584,58.064C106.584,58.788 106.534,59.463 106.434,60.087L90.068,60.087C90.168,62.134 90.811,63.751 91.997,64.936C93.183,66.122 94.7,66.715 96.547,66.715C97.945,66.715 99.125,66.403 100.086,65.779C101.047,65.155 101.753,64.331 102.202,63.307L105.872,63.307C105.223,65.105 104.106,66.59 102.52,67.764C100.935,68.937 98.944,69.524 96.547,69.524ZM103.026,57.615C103.001,55.643 102.377,54.063 101.154,52.878C99.93,51.692 98.413,51.099 96.603,51.099C94.793,51.099 93.289,51.679 92.091,52.84C90.892,54.001 90.231,55.593 90.106,57.615L103.026,57.615Z" style="fill:white;fill-rule:nonzero;"/>
                        <path d="M110.067,54.432C110.067,52.709 110.784,51.255 112.22,50.069C113.656,48.883 115.516,48.29 117.8,48.29C120.085,48.29 121.876,48.87 123.174,50.031C124.472,51.192 125.184,52.784 125.309,54.806L121.789,54.806C121.739,53.658 121.352,52.734 120.628,52.035C119.904,51.336 118.899,50.986 117.613,50.986C116.327,50.986 115.316,51.292 114.579,51.904C113.843,52.516 113.475,53.302 113.475,54.263C113.475,55.224 113.893,55.967 114.729,56.491C115.566,57.016 116.577,57.397 117.763,57.634C118.949,57.871 120.134,58.146 121.32,58.458C122.506,58.77 123.517,59.356 124.354,60.218C125.19,61.079 125.608,62.302 125.608,63.888C125.608,65.473 124.891,66.809 123.455,67.895C122.019,68.981 120.153,69.524 117.856,69.524C115.559,69.524 113.718,68.95 112.332,67.801C110.947,66.653 110.191,65.068 110.067,63.045L113.587,63.045C113.637,64.194 114.043,65.111 114.804,65.798C115.566,66.484 116.614,66.828 117.95,66.828C119.286,66.828 120.334,66.541 121.096,65.966C121.857,65.392 122.238,64.662 122.238,63.776C122.238,62.889 121.938,62.184 121.339,61.66C120.74,61.135 119.991,60.773 119.092,60.574C118.193,60.374 117.213,60.137 116.152,59.862C115.091,59.587 114.111,59.294 113.212,58.982C112.314,58.67 111.565,58.127 110.965,57.353C110.366,56.579 110.067,55.605 110.067,54.432Z" style="fill:white;fill-rule:nonzero;"/>
                        <path d="M139.128,69.524C136.182,69.524 133.785,68.55 131.937,66.603C130.09,64.656 129.166,62.084 129.166,58.888C129.166,55.693 130.102,53.127 131.975,51.192C133.847,49.257 136.275,48.29 139.259,48.29C142.242,48.29 144.639,49.207 146.449,51.043C148.259,52.878 149.164,55.218 149.164,58.064C149.164,58.788 149.115,59.463 149.015,60.087L132.649,60.087C132.749,62.134 133.392,63.751 134.578,64.936C135.764,66.122 137.28,66.715 139.128,66.715C140.526,66.715 141.706,66.403 142.667,65.779C143.628,65.155 144.333,64.331 144.783,63.307L148.453,63.307C147.804,65.105 146.687,66.59 145.101,67.764C143.516,68.937 141.525,69.524 139.128,69.524ZM145.607,57.615C145.582,55.643 144.958,54.063 143.734,52.878C142.511,51.692 140.994,51.099 139.184,51.099C137.374,51.099 135.87,51.679 134.671,52.84C133.473,54.001 132.811,55.593 132.686,57.615L145.607,57.615Z" style="fill:white;fill-rule:nonzero;"/>
                        <path d="M160.137,66.416L162.946,66.416L162.946,69.187L159.501,69.187C155.93,69.187 154.145,67.427 154.145,63.907L154.145,51.398L151.486,51.398L151.486,48.627L154.145,48.627L154.145,43.534L157.591,43.534L157.591,48.627L162.909,48.627L162.909,51.398L157.591,51.398L157.591,63.907C157.591,64.83 157.778,65.479 158.152,65.854C158.527,66.228 159.189,66.416 160.137,66.416Z" style="fill:white;fill-rule:nonzero;"/>
                    </g>
                    <g transform="matrix(0.217332,0,0,0.217332,-6.12204,99.8796)">
                        <path d="M83.739,43.234L75.725,56.229L83.702,69.187L79.957,69.187L73.628,58.963L67.673,69.187L63.891,69.187L71.905,56.192L63.891,43.234L67.673,43.234L74.002,53.495L79.957,43.234L83.739,43.234Z" style="fill:white;fill-rule:nonzero;"/>
                        <path d="M98.738,66.603C100.648,66.603 102.283,65.885 103.644,64.45C105.005,63.014 105.685,61.129 105.685,58.795C105.685,56.46 105.005,54.619 103.644,53.271C102.283,51.923 100.648,51.248 98.738,51.248C96.828,51.248 95.193,51.948 93.832,53.346C92.471,54.744 91.791,56.598 91.791,58.907C91.791,61.216 92.471,63.076 93.832,64.487C95.193,65.898 96.828,66.603 98.738,66.603ZM99.393,48.29C102.215,48.29 104.555,49.257 106.415,51.192C108.275,53.127 109.205,55.661 109.205,58.795C109.205,61.928 108.269,64.5 106.397,66.509C104.524,68.519 102.19,69.524 99.393,69.524C97.646,69.524 96.117,69.106 94.806,68.27C93.495,67.433 92.49,66.341 91.791,64.993L91.791,78.924L88.383,78.924L88.383,48.627L91.791,48.627L91.791,52.746C92.49,51.423 93.495,50.35 94.806,49.526C96.117,48.702 97.646,48.29 99.393,48.29Z" style="fill:white;fill-rule:nonzero;"/>
                        <path d="M122.238,66.715C124.16,66.715 125.827,66.023 127.237,64.637C128.648,63.251 129.353,61.335 129.353,58.888C129.353,56.442 128.679,54.532 127.331,53.158C125.983,51.785 124.341,51.099 122.406,51.099C120.472,51.099 118.855,51.785 117.557,53.158C116.258,54.532 115.609,56.448 115.609,58.907C115.609,61.366 116.233,63.282 117.482,64.656C118.73,66.029 120.315,66.715 122.238,66.715ZM114.954,66.603C113.069,64.656 112.126,62.096 112.126,58.926C112.126,55.755 113.113,53.19 115.085,51.23C117.057,49.27 119.529,48.29 122.5,48.29C125.471,48.29 127.943,49.27 129.915,51.23C131.888,53.19 132.874,55.749 132.874,58.907C132.874,62.065 131.844,64.624 129.784,66.584C127.724,68.544 125.209,69.524 122.238,69.524C119.267,69.524 116.839,68.55 114.954,66.603Z" style="fill:white;fill-rule:nonzero;"/>
                        <path d="M136.394,54.432C136.394,52.709 137.112,51.255 138.547,50.069C139.983,48.883 141.843,48.29 144.127,48.29C146.412,48.29 148.203,48.87 149.501,50.031C150.8,51.192 151.511,52.784 151.636,54.806L148.116,54.806C148.066,53.658 147.679,52.734 146.955,52.035C146.231,51.336 145.226,50.986 143.94,50.986C142.654,50.986 141.643,51.292 140.907,51.904C140.17,52.516 139.802,53.302 139.802,54.263C139.802,55.224 140.22,55.967 141.057,56.491C141.893,57.016 142.904,57.397 144.09,57.634C145.276,57.871 146.462,58.146 147.648,58.458C148.834,58.77 149.845,59.356 150.681,60.218C151.518,61.079 151.936,62.302 151.936,63.888C151.936,65.473 151.218,66.809 149.782,67.895C148.347,68.981 146.481,69.524 144.184,69.524C141.887,69.524 140.045,68.95 138.66,67.801C137.274,66.653 136.519,65.068 136.394,63.045L139.914,63.045C139.964,64.194 140.37,65.111 141.131,65.798C141.893,66.484 142.942,66.828 144.277,66.828C145.613,66.828 146.662,66.541 147.423,65.966C148.185,65.392 148.565,64.662 148.565,63.776C148.565,62.889 148.266,62.184 147.666,61.66C147.067,61.135 146.318,60.773 145.419,60.574C144.521,60.374 143.541,60.137 142.48,59.862C141.419,59.587 140.439,59.294 139.54,58.982C138.641,58.67 137.892,58.127 137.293,57.353C136.694,56.579 136.394,55.605 136.394,54.432Z" style="fill:white;fill-rule:nonzero;"/>
                        <path d="M165.455,69.524C162.509,69.524 160.112,68.55 158.265,66.603C156.417,64.656 155.493,62.084 155.493,58.888C155.493,55.693 156.43,53.127 158.302,51.192C160.175,49.257 162.603,48.29 165.586,48.29C168.57,48.29 170.967,49.207 172.777,51.043C174.587,52.878 175.492,55.218 175.492,58.064C175.492,58.788 175.442,59.463 175.342,60.087L158.976,60.087C159.076,62.134 159.719,63.751 160.905,64.936C162.091,66.122 163.608,66.715 165.455,66.715C166.853,66.715 168.033,66.403 168.994,65.779C169.955,65.155 170.661,64.331 171.11,63.307L174.78,63.307C174.131,65.105 173.014,66.59 171.428,67.764C169.843,68.937 167.852,69.524 165.455,69.524ZM171.934,57.615C171.909,55.643 171.285,54.063 170.062,52.878C168.838,51.692 167.321,51.099 165.511,51.099C163.701,51.099 162.197,51.679 160.999,52.84C159.8,54.001 159.139,55.593 159.014,57.615L171.934,57.615Z" style="fill:white;fill-rule:nonzero;"/>
                    </g>
                    <g transform="matrix(0.217332,0,0,0.217332,-4.68202,185.919)">
                        <path d="M67.598,50.162C67.598,51.111 67.861,51.898 68.385,52.522C68.909,53.146 69.583,53.608 70.407,53.907C71.231,54.207 72.149,54.469 73.16,54.694C74.171,54.919 75.182,55.174 76.193,55.462C77.204,55.749 78.122,56.117 78.946,56.566C79.77,57.016 80.444,57.69 80.968,58.589C81.492,59.487 81.754,60.598 81.754,61.922C81.754,63.944 80.981,65.704 79.433,67.202C77.885,68.7 75.794,69.449 73.16,69.449C70.526,69.449 68.385,68.844 66.737,67.633C65.089,66.422 64.265,64.78 64.265,62.708L67.898,62.708C67.998,63.882 68.466,64.83 69.302,65.554C70.139,66.278 71.381,66.64 73.029,66.64C74.676,66.64 75.987,66.216 76.961,65.367C77.935,64.518 78.421,63.526 78.421,62.39C78.421,61.254 78.159,60.38 77.635,59.768C77.111,59.157 76.437,58.701 75.613,58.401C74.789,58.102 73.871,57.846 72.86,57.634C71.849,57.421 70.838,57.166 69.827,56.866C68.816,56.566 67.898,56.186 67.074,55.724C66.25,55.262 65.576,54.575 65.052,53.664C64.527,52.753 64.265,51.623 64.265,50.275C64.265,48.078 65.046,46.311 66.606,44.976C68.166,43.64 70.201,42.972 72.71,42.972C75.219,42.972 77.217,43.553 78.702,44.713C80.188,45.874 81.043,47.479 81.268,49.526L77.485,49.526C77.385,48.502 76.905,47.628 76.043,46.904C75.182,46.18 74.021,45.818 72.561,45.818C71.1,45.818 69.908,46.186 68.984,46.923C68.06,47.66 67.598,48.739 67.598,50.162Z" style="fill:white;fill-rule:nonzero;"/>
                        <path d="M93.551,66.416L96.36,66.416L96.36,69.187L92.915,69.187C89.344,69.187 87.559,67.427 87.559,63.907L87.559,51.398L84.9,51.398L84.9,48.627L87.559,48.627L87.559,43.534L91.005,43.534L91.005,48.627L96.323,48.627L96.323,51.398L91.005,51.398L91.005,63.907C91.005,64.83 91.192,65.479 91.566,65.854C91.941,66.228 92.602,66.416 93.551,66.416Z" style="fill:white;fill-rule:nonzero;"/>
                        <path d="M108.718,69.524C105.772,69.524 103.376,68.55 101.528,66.603C99.681,64.656 98.757,62.084 98.757,58.888C98.757,55.693 99.693,53.127 101.566,51.192C103.438,49.257 105.866,48.29 108.85,48.29C111.833,48.29 114.23,49.207 116.04,51.043C117.85,52.878 118.755,55.218 118.755,58.064C118.755,58.788 118.705,59.463 118.605,60.087L102.24,60.087C102.339,62.134 102.982,63.751 104.168,64.936C105.354,66.122 106.871,66.715 108.718,66.715C110.117,66.715 111.296,66.403 112.257,65.779C113.219,65.155 113.924,64.331 114.373,63.307L118.044,63.307C117.394,65.105 116.277,66.59 114.692,67.764C113.106,68.937 111.115,69.524 108.718,69.524ZM115.197,57.615C115.172,55.643 114.548,54.063 113.325,52.878C112.101,51.692 110.585,51.099 108.775,51.099C106.965,51.099 105.46,51.679 104.262,52.84C103.064,54.001 102.402,55.593 102.277,57.615L115.197,57.615Z" style="fill:white;fill-rule:nonzero;"/>
                        <path d="M133.342,66.603C135.252,66.603 136.887,65.885 138.248,64.45C139.608,63.014 140.289,61.129 140.289,58.795C140.289,56.46 139.608,54.619 138.248,53.271C136.887,51.923 135.252,51.248 133.342,51.248C131.432,51.248 129.797,51.948 128.436,53.346C127.075,54.744 126.395,56.598 126.395,58.907C126.395,61.216 127.075,63.076 128.436,64.487C129.797,65.898 131.432,66.603 133.342,66.603ZM133.997,48.29C136.818,48.29 139.159,49.257 141.019,51.192C142.879,53.127 143.809,55.661 143.809,58.795C143.809,61.928 142.873,64.5 141,66.509C139.128,68.519 136.793,69.524 133.997,69.524C132.25,69.524 130.72,69.106 129.41,68.27C128.099,67.433 127.094,66.341 126.395,64.993L126.395,78.924L122.987,78.924L122.987,48.627L126.395,48.627L126.395,52.746C127.094,51.423 128.099,50.35 129.41,49.526C130.72,48.702 132.25,48.29 133.997,48.29Z" style="fill:white;fill-rule:nonzero;"/>
                        <path d="M147.329,54.432C147.329,52.709 148.047,51.255 149.483,50.069C150.918,48.883 152.778,48.29 155.063,48.29C157.347,48.29 159.139,48.87 160.437,50.031C161.735,51.192 162.447,52.784 162.572,54.806L159.051,54.806C159.001,53.658 158.614,52.734 157.89,52.035C157.166,51.336 156.161,50.986 154.876,50.986C153.59,50.986 152.579,51.292 151.842,51.904C151.106,52.516 150.737,53.302 150.737,54.263C150.737,55.224 151.156,55.967 151.992,56.491C152.828,57.016 153.839,57.397 155.025,57.634C156.211,57.871 157.397,58.146 158.583,58.458C159.769,58.77 160.78,59.356 161.617,60.218C162.453,61.079 162.871,62.302 162.871,63.888C162.871,65.473 162.153,66.809 160.718,67.895C159.282,68.981 157.416,69.524 155.119,69.524C152.822,69.524 150.981,68.95 149.595,67.801C148.209,66.653 147.454,65.068 147.329,63.045L150.85,63.045C150.9,64.194 151.305,65.111 152.067,65.798C152.828,66.484 153.877,66.828 155.213,66.828C156.548,66.828 157.597,66.541 158.358,65.966C159.12,65.392 159.501,64.662 159.501,63.776C159.501,62.889 159.201,62.184 158.602,61.66C158.003,61.135 157.254,60.773 156.355,60.574C155.456,60.374 154.476,60.137 153.415,59.862C152.354,59.587 151.374,59.294 150.475,58.982C149.576,58.67 148.827,58.127 148.228,57.353C147.629,56.579 147.329,55.605 147.329,54.432Z" style="fill:white;fill-rule:nonzero;"/>
                    </g>
                    <g transform="matrix(0.217332,0,0,0.217332,-5.84997,229.65)">
                        <path d="M67.598,50.162C67.598,51.111 67.861,51.898 68.385,52.522C68.909,53.146 69.583,53.608 70.407,53.907C71.231,54.207 72.149,54.469 73.16,54.694C74.171,54.919 75.182,55.174 76.193,55.462C77.204,55.749 78.122,56.117 78.946,56.566C79.77,57.016 80.444,57.69 80.968,58.589C81.492,59.487 81.754,60.598 81.754,61.922C81.754,63.944 80.981,65.704 79.433,67.202C77.885,68.7 75.794,69.449 73.16,69.449C70.526,69.449 68.385,68.844 66.737,67.633C65.089,66.422 64.265,64.78 64.265,62.708L67.898,62.708C67.998,63.882 68.466,64.83 69.302,65.554C70.139,66.278 71.381,66.64 73.029,66.64C74.676,66.64 75.987,66.216 76.961,65.367C77.935,64.518 78.421,63.526 78.421,62.39C78.421,61.254 78.159,60.38 77.635,59.768C77.111,59.157 76.437,58.701 75.613,58.401C74.789,58.102 73.871,57.846 72.86,57.634C71.849,57.421 70.838,57.166 69.827,56.866C68.816,56.566 67.898,56.186 67.074,55.724C66.25,55.262 65.576,54.575 65.052,53.664C64.527,52.753 64.265,51.623 64.265,50.275C64.265,48.078 65.046,46.311 66.606,44.976C68.166,43.64 70.201,42.972 72.71,42.972C75.219,42.972 77.217,43.553 78.702,44.713C80.188,45.874 81.043,47.479 81.268,49.526L77.485,49.526C77.385,48.502 76.905,47.628 76.043,46.904C75.182,46.18 74.021,45.818 72.561,45.818C71.1,45.818 69.908,46.186 68.984,46.923C68.06,47.66 67.598,48.739 67.598,50.162Z" style="fill:white;fill-rule:nonzero;"/>
                        <path d="M95.424,69.524C92.478,69.524 90.081,68.55 88.233,66.603C86.386,64.656 85.462,62.084 85.462,58.888C85.462,55.693 86.398,53.127 88.271,51.192C90.143,49.257 92.571,48.29 95.555,48.29C98.538,48.29 100.935,49.207 102.745,51.043C104.555,52.878 105.46,55.218 105.46,58.064C105.46,58.788 105.41,59.463 105.311,60.087L88.945,60.087C89.045,62.134 89.688,63.751 90.874,64.936C92.059,66.122 93.576,66.715 95.424,66.715C96.822,66.715 98.002,66.403 98.963,65.779C99.924,65.155 100.629,64.331 101.079,63.307L104.749,63.307C104.1,65.105 102.982,66.59 101.397,67.764C99.812,68.937 97.821,69.524 95.424,69.524ZM101.903,57.615C101.878,55.643 101.253,54.063 100.03,52.878C98.807,51.692 97.29,51.099 95.48,51.099C93.67,51.099 92.166,51.679 90.967,52.84C89.769,54.001 89.107,55.593 88.982,57.615L101.903,57.615Z" style="fill:white;fill-rule:nonzero;"/>
                        <rect x="109.692" y="41.474" width="3.408" height="27.713" style="fill:white;fill-rule:nonzero;"/>
                        <path d="M127.331,69.524C124.385,69.524 121.988,68.55 120.141,66.603C118.293,64.656 117.369,62.084 117.369,58.888C117.369,55.693 118.306,53.127 120.178,51.192C122.051,49.257 124.479,48.29 127.462,48.29C130.446,48.29 132.842,49.207 134.653,51.043C136.463,52.878 137.368,55.218 137.368,58.064C137.368,58.788 137.318,59.463 137.218,60.087L120.852,60.087C120.952,62.134 121.595,63.751 122.781,64.936C123.967,66.122 125.484,66.715 127.331,66.715C128.729,66.715 129.909,66.403 130.87,65.779C131.831,65.155 132.537,64.331 132.986,63.307L136.656,63.307C136.007,65.105 134.89,66.59 133.304,67.764C131.719,68.937 129.728,69.524 127.331,69.524ZM133.81,57.615C133.785,55.643 133.161,54.063 131.937,52.878C130.714,51.692 129.197,51.099 127.387,51.099C125.577,51.099 124.073,51.679 122.875,52.84C121.676,54.001 121.015,55.593 120.89,57.615L133.81,57.615Z" style="fill:white;fill-rule:nonzero;"/>
                        <path d="M150.213,69.524C147.267,69.524 144.87,68.55 143.023,66.603C141.175,64.656 140.251,62.09 140.251,58.907C140.251,55.724 141.175,53.158 143.023,51.211C144.87,49.264 147.267,48.29 150.213,48.29C152.685,48.29 154.701,48.864 156.261,50.013C157.822,51.161 158.914,52.796 159.538,54.919L155.868,54.919C155.469,53.72 154.782,52.784 153.808,52.11C152.835,51.436 151.636,51.099 150.213,51.099C148.266,51.099 146.699,51.779 145.513,53.14C144.327,54.5 143.734,56.423 143.734,58.907C143.734,61.391 144.327,63.314 145.513,64.674C146.699,66.035 148.266,66.715 150.213,66.715C153.134,66.715 155.019,65.442 155.868,62.895L159.538,62.895C158.914,64.918 157.809,66.528 156.224,67.726C154.638,68.925 152.635,69.524 150.213,69.524Z" style="fill:white;fill-rule:nonzero;"/>
                        <path d="M170.811,66.416L173.619,66.416L173.619,69.187L170.174,69.187C166.604,69.187 164.819,67.427 164.819,63.907L164.819,51.398L162.16,51.398L162.16,48.627L164.819,48.627L164.819,43.534L168.264,43.534L168.264,48.627L173.582,48.627L173.582,51.398L168.264,51.398L168.264,63.907C168.264,64.83 168.451,65.479 168.826,65.854C169.2,66.228 169.862,66.416 170.811,66.416Z" style="fill:white;fill-rule:nonzero;"/>
                    </g>
                    <g transform="matrix(0.217332,0,0,0.217332,1.0479,271.748)">
                        <path d="M68.235,66.566L73.029,66.566C76.299,66.566 78.796,65.667 80.519,63.869C82.241,62.072 83.103,59.562 83.103,56.342C83.103,53.121 82.241,50.612 80.519,48.814C78.796,47.017 76.299,46.118 73.029,46.118L68.235,46.118L68.235,66.566ZM73.029,43.234C77.223,43.234 80.531,44.408 82.953,46.754C85.375,49.101 86.586,52.297 86.586,56.342C86.586,60.386 85.375,63.538 82.953,65.798C80.531,68.057 77.223,69.187 73.029,69.187L64.827,69.187L64.827,43.234L73.029,43.234Z" style="fill:white;fill-rule:nonzero;"/>
                        <path d="M94.263,44.657C93.813,45.107 93.264,45.331 92.615,45.331C91.966,45.331 91.423,45.107 90.986,44.657C90.549,44.208 90.331,43.659 90.331,43.009C90.331,42.36 90.555,41.811 91.005,41.362C91.454,40.912 91.997,40.688 92.634,40.688C93.27,40.688 93.813,40.912 94.263,41.362C94.712,41.811 94.937,42.36 94.937,43.009C94.937,43.659 94.712,44.208 94.263,44.657ZM90.892,69.187L90.892,48.627L94.3,48.627L94.3,69.187L90.892,69.187Z" style="fill:white;fill-rule:nonzero;"/>
                        <path d="M103.326,48.627L103.326,52.11C104.549,49.563 106.634,48.29 109.58,48.29L109.58,51.848L108.681,51.848C106.933,51.848 105.604,52.303 104.693,53.215C103.781,54.126 103.326,55.705 103.326,57.952L103.326,69.187L99.918,69.187L99.918,48.627L103.326,48.627Z" style="fill:white;fill-rule:nonzero;"/>
                    </g>
                    <g transform="matrix(0.217332,0,0,0.217332,-5.35756,315.466)">
                        <path d="M67.598,50.162C67.598,51.111 67.861,51.898 68.385,52.522C68.909,53.146 69.583,53.608 70.407,53.907C71.231,54.207 72.149,54.469 73.16,54.694C74.171,54.919 75.182,55.174 76.193,55.462C77.204,55.749 78.122,56.117 78.946,56.566C79.77,57.016 80.444,57.69 80.968,58.589C81.492,59.487 81.754,60.598 81.754,61.922C81.754,63.944 80.981,65.704 79.433,67.202C77.885,68.7 75.794,69.449 73.16,69.449C70.526,69.449 68.385,68.844 66.737,67.633C65.089,66.422 64.265,64.78 64.265,62.708L67.898,62.708C67.998,63.882 68.466,64.83 69.302,65.554C70.139,66.278 71.381,66.64 73.029,66.64C74.676,66.64 75.987,66.216 76.961,65.367C77.935,64.518 78.421,63.526 78.421,62.39C78.421,61.254 78.159,60.38 77.635,59.768C77.111,59.157 76.437,58.701 75.613,58.401C74.789,58.102 73.871,57.846 72.86,57.634C71.849,57.421 70.838,57.166 69.827,56.866C68.816,56.566 67.898,56.186 67.074,55.724C66.25,55.262 65.576,54.575 65.052,53.664C64.527,52.753 64.265,51.623 64.265,50.275C64.265,48.078 65.046,46.311 66.606,44.976C68.166,43.64 70.201,42.972 72.71,42.972C75.219,42.972 77.217,43.553 78.702,44.713C80.188,45.874 81.043,47.479 81.268,49.526L77.485,49.526C77.385,48.502 76.905,47.628 76.043,46.904C75.182,46.18 74.021,45.818 72.561,45.818C71.1,45.818 69.908,46.186 68.984,46.923C68.06,47.66 67.598,48.739 67.598,50.162Z" style="fill:white;fill-rule:nonzero;"/>
                        <path d="M110.366,48.627L113.812,48.627L107.333,69.187L103.813,69.187L99.169,52.859L94.525,69.187L90.967,69.187L84.451,48.627L87.971,48.627L92.727,65.779L97.558,48.627L101.079,48.627L105.648,65.817L110.366,48.627Z" style="fill:white;fill-rule:nonzero;"/>
                        <path d="M120.44,44.657C119.991,45.107 119.442,45.331 118.793,45.331C118.143,45.331 117.6,45.107 117.163,44.657C116.727,44.208 116.508,43.659 116.508,43.009C116.508,42.36 116.733,41.811 117.182,41.362C117.632,40.912 118.175,40.688 118.811,40.688C119.448,40.688 119.991,40.912 120.44,41.362C120.89,41.811 121.114,42.36 121.114,43.009C121.114,43.659 120.89,44.208 120.44,44.657ZM117.07,69.187L117.07,48.627L120.478,48.627L120.478,69.187L117.07,69.187Z" style="fill:white;fill-rule:nonzero;"/>
                        <path d="M129.503,48.627L129.503,51.96C130.901,49.513 133.136,48.29 136.207,48.29C138.479,48.29 140.376,49.045 141.899,50.556C143.422,52.066 144.184,54.22 144.184,57.016L144.184,69.187L140.813,69.187L140.813,57.578C140.813,55.505 140.314,53.932 139.315,52.859C138.316,51.785 136.937,51.248 135.177,51.248C133.417,51.248 132.031,51.785 131.02,52.859C130.009,53.932 129.503,55.505 129.503,57.578L129.503,69.187L126.095,69.187L126.095,48.627L129.503,48.627Z" style="fill:white;fill-rule:nonzero;"/>
                        <path d="M158.078,69.524C155.281,69.524 152.947,68.519 151.074,66.509C149.202,64.5 148.266,61.928 148.266,58.795C148.266,55.661 149.196,53.127 151.056,51.192C152.916,49.257 155.256,48.29 158.078,48.29C159.825,48.29 161.354,48.702 162.665,49.526C163.976,50.35 164.968,51.423 165.642,52.746L165.642,48.627L169.088,48.627L169.088,69.711C169.088,72.533 168.177,74.836 166.354,76.621C164.531,78.406 162.222,79.299 159.426,79.299C156.629,79.299 154.314,78.649 152.479,77.351C150.644,76.053 149.601,74.355 149.352,72.258L152.685,72.258C153.009,73.431 153.771,74.405 154.969,75.179C156.168,75.953 157.653,76.34 159.426,76.34C161.198,76.34 162.678,75.759 163.864,74.599C165.049,73.438 165.642,71.809 165.642,69.711L165.642,64.993C164.968,66.341 163.976,67.433 162.665,68.27C161.354,69.106 159.825,69.524 158.078,69.524ZM163.601,64.506C164.962,63.108 165.642,61.248 165.642,58.926C165.642,56.604 164.962,54.744 163.601,53.346C162.241,51.948 160.605,51.248 158.695,51.248C156.786,51.248 155.15,51.923 153.79,53.271C152.429,54.619 151.748,56.454 151.748,58.776C151.748,61.098 152.435,62.983 153.808,64.431C155.181,65.879 156.817,66.603 158.714,66.603C160.612,66.603 162.241,65.904 163.601,64.506Z" style="fill:white;fill-rule:nonzero;"/>
                    </g>
                </g>
                <g id="Logo" transform="matrix(0.00123347,0,0,0.00121354,114.589,365.372)">
                    <path d="M3953,4248.31L3953,1873.04C3953,1769.02 4022.35,1699.67 4126.38,1699.67L4663.84,1699.67C4767.87,1699.67 4837.22,1769.02 4837.22,1873.04L4837.22,4248.31C4837.22,4352.34 4767.87,4421.69 4663.84,4421.69L4126.38,4421.69C4022.35,4421.69 3953,4352.34 3953,4248.31ZM3953,8565.4L3953,6536.89C3953,6432.86 4022.35,6363.51 4126.38,6363.51L4663.84,6363.51C4767.87,6363.51 4837.22,6432.86 4837.22,6536.89L4837.22,8565.4C4837.22,8669.43 4906.57,8756.11 5027.94,8738.78C7143.14,8426.7 8772.88,6588.9 8772.88,4369.67C8772.88,1959.73 6796.38,0.57 4386.44,0.57C1959.16,0.57 0,1959.73 0,4369.67C0,6606.24 1647.08,8426.7 3762.28,8738.78C3883.65,8756.11 3953,8669.43 3953,8565.4Z" style="fill:rgb(33,112,245);fill-rule:nonzero;"/>
                </g>
                <g id="_1-8" serif:id="1-8" transform="matrix(1,0,0,1,47,0)">
                    <g transform="matrix(0.524949,0,0,0.520313,70.7275,-5.29437)">
                        <path d="M67.611,114.292C76.749,108.801 82.355,98.892 82.355,88.232C82.355,71.553 68.631,57.829 51.953,57.829C35.274,57.829 21.55,71.553 21.55,88.232C21.55,98.967 27.236,108.936 36.476,114.4" style="fill:none;fill-rule:nonzero;stroke:white;stroke-opacity:0.9;stroke-width:0.8px;"/>
                    </g>
                    <g transform="matrix(0.524949,0,0,0.520313,70.7275,37.7611)">
                        <path d="M67.611,114.292C76.749,108.801 82.355,98.892 82.355,88.232C82.355,71.553 68.631,57.829 51.953,57.829C35.274,57.829 21.55,71.553 21.55,88.232C21.55,98.967 27.236,108.936 36.476,114.4" style="fill:none;fill-rule:nonzero;stroke:white;stroke-opacity:0.9;stroke-width:0.8px;"/>
                    </g>
                    <g transform="matrix(0.524949,0,0,0.520313,70.7275,80.8165)">
                        <path d="M67.611,114.292C76.749,108.801 82.355,98.892 82.355,88.232C82.355,71.553 68.631,57.829 51.953,57.829C35.274,57.829 21.55,71.553 21.55,88.232C21.55,98.967 27.236,108.936 36.476,114.4" style="fill:none;fill-rule:nonzero;stroke:white;stroke-opacity:0.9;stroke-width:0.8px;"/>
                    </g>
                    <g transform="matrix(0.524949,0,0,0.520313,70.7275,123.872)">
                        <path d="M67.611,114.292C76.749,108.801 82.355,98.892 82.355,88.232C82.355,71.553 68.631,57.829 51.953,57.829C35.274,57.829 21.55,71.553 21.55,88.232C21.55,98.967 27.236,108.936 36.476,114.4" style="fill:none;fill-rule:nonzero;stroke:white;stroke-opacity:0.9;stroke-width:0.8px;"/>
                    </g>
                    <g transform="matrix(0.524949,0,0,0.520313,70.7275,166.927)">
                        <path d="M67.611,114.292C76.749,108.801 82.355,98.892 82.355,88.232C82.355,71.553 68.631,57.829 51.953,57.829C35.274,57.829 21.55,71.553 21.55,88.232C21.55,98.967 27.236,108.936 36.476,114.4" style="fill:none;fill-rule:nonzero;stroke:white;stroke-opacity:0.9;stroke-width:0.8px;"/>
                    </g>
                    <g transform="matrix(0.524949,0,0,0.520313,70.7275,209.983)">
                        <path d="M67.611,114.292C76.749,108.801 82.355,98.892 82.355,88.232C82.355,71.553 68.631,57.829 51.953,57.829C35.274,57.829 21.55,71.553 21.55,88.232C21.55,98.967 27.236,108.936 36.476,114.4" style="fill:none;fill-rule:nonzero;stroke:white;stroke-opacity:0.9;stroke-width:0.8px;"/>
                    </g>
                    <g transform="matrix(0.524949,0,0,0.520313,70.7275,253.038)">
                        <path d="M67.611,114.292C76.749,108.801 82.355,98.892 82.355,88.232C82.355,71.553 68.631,57.829 51.953,57.829C35.274,57.829 21.55,71.553 21.55,88.232C21.55,98.967 27.236,108.936 36.476,114.4" style="fill:none;fill-rule:nonzero;stroke:white;stroke-opacity:0.9;stroke-width:0.8px;"/>
                    </g>
                    <g transform="matrix(0.524949,0,0,0.520313,70.7275,296.094)">
                        <path d="M67.611,114.292C76.749,108.801 82.355,98.892 82.355,88.232C82.355,71.553 68.631,57.829 51.953,57.829C35.274,57.829 21.55,71.553 21.55,88.232C21.55,98.967 27.236,108.936 36.476,114.4" style="fill:none;fill-rule:nonzero;stroke:white;stroke-opacity:0.9;stroke-width:0.8px;"/>
                    </g>
                </g>
                <g id="_1-81" serif:id="1-8" transform="matrix(1,0,0,1,-3,0)">
                    <g transform="matrix(0.524949,0,0,0.520313,70.7275,-5.29437)">
                        <path d="M67.611,114.292C76.749,108.801 82.355,98.892 82.355,88.232C82.355,71.553 68.631,57.829 51.953,57.829C35.274,57.829 21.55,71.553 21.55,88.232C21.55,98.967 27.236,108.936 36.476,114.4" style="fill:none;fill-rule:nonzero;stroke:white;stroke-opacity:0.9;stroke-width:0.8px;"/>
                    </g>
                    <g transform="matrix(0.524949,0,0,0.520313,70.7275,37.7611)">
                        <path d="M67.611,114.292C76.749,108.801 82.355,98.892 82.355,88.232C82.355,71.553 68.631,57.829 51.953,57.829C35.274,57.829 21.55,71.553 21.55,88.232C21.55,98.967 27.236,108.936 36.476,114.4" style="fill:none;fill-rule:nonzero;stroke:white;stroke-opacity:0.9;stroke-width:0.8px;"/>
                    </g>
                    <g transform="matrix(0.524949,0,0,0.520313,70.7275,80.8165)">
                        <path d="M67.611,114.292C76.749,108.801 82.355,98.892 82.355,88.232C82.355,71.553 68.631,57.829 51.953,57.829C35.274,57.829 21.55,71.553 21.55,88.232C21.55,98.967 27.236,108.936 36.476,114.4" style="fill:none;fill-rule:nonzero;stroke:white;stroke-opacity:0.9;stroke-width:0.8px;"/>
                    </g>
                    <g transform="matrix(0.524949,0,0,0.520313,70.7275,123.872)">
                        <path d="M67.611,114.292C76.749,108.801 82.355,98.892 82.355,88.232C82.355,71.553 68.631,57.829 51.953,57.829C35.274,57.829 21.55,71.553 21.55,88.232C21.55,98.967 27.236,108.936 36.476,114.4" style="fill:none;fill-rule:nonzero;stroke:white;stroke-opacity:0.9;stroke-width:0.8px;"/>
                    </g>
                    <g transform="matrix(0.524949,0,0,0.520313,70.7275,166.927)">
                        <path d="M67.611,114.292C76.749,108.801 82.355,98.892 82.355,88.232C82.355,71.553 68.631,57.829 51.953,57.829C35.274,57.829 21.55,71.553 21.55,88.232C21.55,98.967 27.236,108.936 36.476,114.4" style="fill:none;fill-rule:nonzero;stroke:white;stroke-opacity:0.9;stroke-width:0.8px;"/>
                    </g>
                    <g transform="matrix(0.524949,0,0,0.520313,70.7275,209.983)">
                        <path d="M67.611,114.292C76.749,108.801 82.355,98.892 82.355,88.232C82.355,71.553 68.631,57.829 51.953,57.829C35.274,57.829 21.55,71.553 21.55,88.232C21.55,98.967 27.236,108.936 36.476,114.4" style="fill:none;fill-rule:nonzero;stroke:white;stroke-opacity:0.9;stroke-width:0.8px;"/>
                    </g>
                    <g transform="matrix(0.524949,0,0,0.520313,70.7275,253.038)">
                        <path d="M67.611,114.292C76.749,108.801 82.355,98.892 82.355,88.232C82.355,71.553 68.631,57.829 51.953,57.829C35.274,57.829 21.55,71.553 21.55,88.232C21.55,98.967 27.236,108.936 36.476,114.4" style="fill:none;fill-rule:nonzero;stroke:white;stroke-opacity:0.9;stroke-width:0.8px;"/>
                    </g>
                    <g transform="matrix(0.524949,0,0,0.520313,70.7275,296.094)">
                        <path d="M67.611,114.292C76.749,108.801 82.355,98.892 82.355,88.232C82.355,71.553 68.631,57.829 51.953,57.829C35.274,57.829 21.55,71.553 21.55,88.232C21.55,98.967 27.236,108.936 36.476,114.4" style="fill:none;fill-rule:nonzero;stroke:white;stroke-opacity:0.9;stroke-width:0.8px;"/>
                    </g>
                </g>
                <g id="Lineas" transform="matrix(1,0,0,1,0,-5)">
                    <g transform="matrix(0.352204,-0.000652142,-0.000589377,1.11626,-14.9012,-22.1481)">
                        <path d="M0.63,40.259L715.956,40.844" style="fill:none;stroke:white;stroke-width:0.24px;stroke-linejoin:round;stroke-miterlimit:1.5;"/>
                    </g>
                    <g transform="matrix(0.348041,-0.000655207,-0.000592126,1.11626,-10.1436,20.8635)">
                        <path d="M0.63,40.259L715.956,40.844" style="fill:none;stroke:white;stroke-width:0.24px;stroke-linejoin:round;stroke-miterlimit:1.5;"/>
                    </g>
                    <g transform="matrix(0.356312,-0.000649117,-0.000586664,1.11626,-7.0185,63.8729)">
                        <path d="M0.63,40.259L715.956,40.844" style="fill:none;stroke:white;stroke-width:0.24px;stroke-linejoin:round;stroke-miterlimit:1.5;"/>
                    </g>
                    <g transform="matrix(0.431157,-0.00057878,-0.000484686,1.11626,-8.20963,106.887)">
                        <path d="M0.63,40.259L600.799,40.774" style="fill:none;stroke:white;stroke-width:0.23px;stroke-linejoin:round;stroke-miterlimit:1.5;"/>
                    </g>
                    <g transform="matrix(0.333522,-0.000665899,-0.000601714,1.11626,0.493852,149.94)">
                        <path d="M0.63,40.259L715.956,40.844" style="fill:none;stroke:white;stroke-width:0.24px;stroke-linejoin:round;stroke-miterlimit:1.5;"/>
                    </g>
                    <g transform="matrix(0.333583,-0.000665853,-0.000601673,1.11626,0.286596,192.942)">
                        <path d="M0.63,40.259L715.956,40.844" style="fill:none;stroke:white;stroke-width:0.24px;stroke-linejoin:round;stroke-miterlimit:1.5;"/>
                    </g>
                    <g transform="matrix(0.328816,-0.000669364,-0.000604821,1.11626,1.073,235.943)">
                        <path d="M0.63,40.259L715.956,40.844" style="fill:none;stroke:white;stroke-width:0.24px;stroke-linejoin:round;stroke-miterlimit:1.5;"/>
                    </g>
                    <g transform="matrix(0.3323,-0.000666798,-0.00060252,1.11626,-0.499827,278.943)">
                        <path d="M0.63,40.259L715.956,40.844" style="fill:none;stroke:white;stroke-width:0.24px;stroke-linejoin:round;stroke-miterlimit:1.5;"/>
                    </g>
                    <g transform="matrix(0.331589,-0.000667322,-0.00060299,1.11626,-0.767765,321.944)">
                        <path d="M0.63,40.259L715.956,40.844" style="fill:none;stroke:white;stroke-width:0.24px;stroke-linejoin:round;stroke-miterlimit:1.5;"/>
                    </g>
                    <g transform="matrix(1,-2.76173e-06,-2.76173e-06,1.40802,-102.655,24.0617)">
                        <path d="M162.649,-0.215L162.647,243.51" style="stroke:white;stroke-width:0.16px;stroke-linejoin:round;stroke-miterlimit:1.5;"/>
                    </g>
                    <g transform="matrix(1,-2.76173e-06,-2.76173e-06,1.40802,-162.578,24.5344)">
                        <path d="M162.649,-0.215L162.647,243.51" style="stroke:white;stroke-width:0.16px;stroke-linejoin:round;stroke-miterlimit:1.5;"/>
                    </g>
                    <g transform="matrix(1,-2.76173e-06,-2.76173e-06,1.40802,77.1125,26.2558)">
                        <path d="M162.649,-0.215L162.647,243.51" style="stroke:white;stroke-width:0.16px;stroke-linejoin:round;stroke-miterlimit:1.5;"/>
                    </g>
                    <g transform="matrix(1,-2.77094e-06,-2.77094e-06,1.40938,-42.7326,23.6572)">
                        <path d="M162.649,-0.215L162.647,243.51" style="fill:none;stroke:white;stroke-width:0.16px;stroke-linejoin:round;stroke-miterlimit:1.5;"/>
                    </g>
                    <g transform="matrix(1,-2.76633e-06,-2.76633e-06,1.4087,17.1899,24.0618)">
                        <path d="M162.649,-0.215L162.647,243.51" style="fill:none;stroke:white;stroke-width:0.16px;stroke-linejoin:round;stroke-miterlimit:1.5;"/>
                    </g>
                </g>
                <g id="Capi" transform="matrix(-0.181401,0,0,0.205876,43.7892,339.712)">
                    <path d="M99.588,123.654C98.136,124.017 97.504,126.235 93.752,128.111C92.446,128.765 90.036,129.439 86.749,131.082C85.16,131.877 76.899,133.591 75.182,137.025C74.177,139.035 72.347,146.18 75.5,149.334C79.932,153.766 80.925,150.607 88.552,150.607C92.823,150.607 93.011,149.016 96.829,150.926C99.137,152.08 104.613,156.943 105,157.717C105.252,158.221 105.501,157.976 105.743,158.46C105.913,158.8 105.725,158.848 106.698,160.794C108.548,164.495 109.446,165.871 108.502,173.422C107.886,178.345 106.693,177.777 103.939,180.532C102.861,181.609 100.89,182.597 100.543,183.291C100.249,183.879 98.542,184.463 100.119,184.988C102.222,185.689 102.243,185.137 104.47,184.988C104.839,184.964 108.147,184.743 108.82,183.397C111.305,178.427 112.964,178.182 113.489,176.605C113.567,176.371 113.591,176.401 114.869,173.846C114.899,173.787 115.79,170.786 117.522,169.92C121.408,167.977 122.961,168.467 123.146,169.39C123.507,171.199 123.651,171.168 126.541,174.059C128.049,175.567 129.692,182.368 128.133,183.927C127.81,184.25 124.737,187.323 123.888,187.747C123.535,187.924 133.004,188.936 133.757,187.429C133.845,187.253 135.105,186.1 135.136,185.307C135.18,184.213 135.136,184.218 135.136,171.618C135.136,169.379 138.536,169.494 139.381,169.071C140.923,168.3 144.501,168.094 146.915,167.692C156.276,166.132 156.33,166.594 158.269,166.206C158.598,166.14 158.564,166.149 158.906,166.1C160.71,165.842 161.943,166.232 161.134,164.614C160.613,163.571 159.545,161.747 161.983,159.309C162.231,159.061 162.089,159.521 161.453,160.158C160.82,160.791 160.157,168.463 163.257,169.496C165.688,170.306 166.113,172.131 166.44,172.785C166.708,173.321 167.009,177.795 164.848,178.515C164.73,178.555 163.102,180.503 162.408,180.85C161.771,181.168 161.224,181.715 161.134,181.805C159.795,183.144 157.751,182.736 155.192,187.853C154.937,188.364 155.405,188.49 162.302,188.49C163.74,188.49 165.135,188.989 164.106,187.96C161.345,185.199 169.334,183.657 170.472,181.381C170.686,180.954 171.869,179.862 172.17,179.258C173.55,176.499 174.746,175.303 175.035,175.014C176.351,173.698 175.569,169.444 177.794,170.557C178.637,170.978 178.093,171.753 178.962,172.042C179.818,172.328 185.898,175.389 185.965,176.393C185.996,176.863 186.082,178.26 185.435,180.85C185.033,182.456 185.396,183.056 182.145,184.139C181.693,184.29 178.646,185.836 176.945,186.686C176.309,187.005 177.086,187.074 177.476,187.853C177.712,188.326 185.756,188.383 186.177,188.278C186.365,188.231 186.27,188.125 188.3,187.111C188.936,186.792 189.304,186.056 189.361,185.943C190.226,184.212 191.348,184.706 192.65,178.197C193.935,171.776 194.062,168.997 192.438,167.373C191.812,166.747 192.217,166.516 191.589,165.888C189.75,164.048 188.896,159.435 183.843,161.962C180.065,163.85 178.212,162.506 176.839,165.251C175.906,167.118 175.283,167.41 175.99,170.239C176.25,171.276 176.505,171.166 176.521,171.087C176.988,168.751 173.571,167.776 176.945,164.402C177.56,163.788 183.218,163.015 186.39,160.901C186.792,160.632 188.74,159.859 189.255,153.685C189.614,149.376 189.047,144.561 188.406,144.241C188.128,144.102 188.173,143.54 187.026,142.967C186.663,142.785 179.546,135.522 176.733,134.584C171.286,132.768 171.329,132.676 168.775,132.037C165.893,131.317 163.487,129.573 160.286,129.172C159.877,129.121 152.692,127.834 151.584,127.793C138.444,127.306 135.334,128.861 134.075,129.491C133.176,129.94 115.87,134.792 110.942,131.507C110.306,131.082 107.726,130.223 107.441,130.127C105.113,129.352 104.311,126.493 102.666,125.671C101.947,125.311 101.712,124.477 100.968,124.291C100.101,124.074 100.138,124.05 99.27,123.761" style="fill:none;stroke:rgb(33,112,245);stroke-width:1.2px;stroke-linejoin:round;stroke-miterlimit:1.5;"/>
                </g>
                <g id="Capi1" serif:id="Capi" transform="matrix(0.189198,0,0,0.205876,199.43,338.879)">
                    <path d="M99.588,123.654C98.136,124.017 97.504,126.235 93.752,128.111C92.446,128.765 90.036,129.439 86.749,131.082C85.16,131.877 76.899,133.591 75.182,137.025C74.177,139.035 72.347,146.18 75.5,149.334C79.932,153.766 80.925,150.607 88.552,150.607C92.823,150.607 93.011,149.016 96.829,150.926C99.137,152.08 104.613,156.943 105,157.717C105.252,158.221 105.501,157.976 105.743,158.46C105.913,158.8 105.725,158.848 106.698,160.794C108.548,164.495 109.446,165.871 108.502,173.422C107.886,178.345 106.693,177.777 103.939,180.532C102.861,181.609 100.89,182.597 100.543,183.291C100.249,183.879 98.542,184.463 100.119,184.988C102.222,185.689 102.243,185.137 104.47,184.988C104.839,184.964 108.147,184.743 108.82,183.397C111.305,178.427 112.964,178.182 113.489,176.605C113.567,176.371 113.591,176.401 114.869,173.846C114.899,173.787 115.79,170.786 117.522,169.92C121.408,167.977 122.961,168.467 123.146,169.39C123.507,171.199 123.651,171.168 126.541,174.059C128.049,175.567 129.692,182.368 128.133,183.927C127.81,184.25 124.737,187.323 123.888,187.747C123.535,187.924 133.004,188.936 133.757,187.429C133.845,187.253 135.105,186.1 135.136,185.307C135.18,184.213 135.136,184.218 135.136,171.618C135.136,169.379 138.536,169.494 139.381,169.071C140.923,168.3 144.501,168.094 146.915,167.692C156.276,166.132 156.33,166.594 158.269,166.206C158.598,166.14 158.564,166.149 158.906,166.1C160.71,165.842 161.943,166.232 161.134,164.614C160.613,163.571 159.545,161.747 161.983,159.309C162.231,159.061 162.089,159.521 161.453,160.158C160.82,160.791 160.157,168.463 163.257,169.496C165.688,170.306 166.113,172.131 166.44,172.785C166.708,173.321 167.009,177.795 164.848,178.515C164.73,178.555 163.102,180.503 162.408,180.85C161.771,181.168 161.224,181.715 161.134,181.805C159.795,183.144 157.751,182.736 155.192,187.853C154.937,188.364 155.405,188.49 162.302,188.49C163.74,188.49 165.135,188.989 164.106,187.96C161.345,185.199 169.334,183.657 170.472,181.381C170.686,180.954 171.869,179.862 172.17,179.258C173.55,176.499 174.746,175.303 175.035,175.014C176.351,173.698 175.569,169.444 177.794,170.557C178.637,170.978 178.093,171.753 178.962,172.042C179.818,172.328 185.898,175.389 185.965,176.393C185.996,176.863 186.082,178.26 185.435,180.85C185.033,182.456 185.396,183.056 182.145,184.139C181.693,184.29 178.646,185.836 176.945,186.686C176.309,187.005 177.086,187.074 177.476,187.853C177.712,188.326 185.756,188.383 186.177,188.278C186.365,188.231 186.27,188.125 188.3,187.111C188.936,186.792 189.304,186.056 189.361,185.943C190.226,184.212 191.348,184.706 192.65,178.197C193.935,171.776 194.062,168.997 192.438,167.373C191.812,166.747 192.217,166.516 191.589,165.888C189.75,164.048 188.896,159.435 183.843,161.962C180.065,163.85 178.212,162.506 176.839,165.251C175.906,167.118 175.283,167.41 175.99,170.239C176.25,171.276 176.505,171.166 176.521,171.087C176.988,168.751 173.571,167.776 176.945,164.402C177.56,163.788 183.218,163.015 186.39,160.901C186.792,160.632 188.74,159.859 189.255,153.685C189.614,149.376 189.047,144.561 188.406,144.241C188.128,144.102 188.173,143.54 187.026,142.967C186.663,142.785 179.546,135.522 176.733,134.584C171.286,132.768 171.329,132.676 168.775,132.037C165.893,131.317 163.487,129.573 160.286,129.172C159.877,129.121 152.692,127.834 151.584,127.793C138.444,127.306 135.334,128.861 134.075,129.491C133.176,129.94 115.87,134.792 110.942,131.507C110.306,131.082 107.726,130.223 107.441,130.127C105.113,129.352 104.311,126.493 102.666,125.671C101.947,125.311 101.712,124.477 100.968,124.291C100.101,124.074 100.138,124.05 99.27,123.761" style="fill:none;stroke:rgb(33,112,245);stroke-width:1.18px;stroke-linejoin:round;stroke-miterlimit:1.5;"/>
                </g>
            </g>
        </g>
    </g>
</svg>
